<svg width="254" height="50" viewBox="0 0 254 50" fill="none" xmlns="http://www.w3.org/2000/svg">
<g clip-path="url(#clip0)">
<path d="M83.9167 41.875H13.0833C9.17687 41.875 6 39.962 6 37.611V7.34735C6 4.99637 9.17687 3.08333 13.0833 3.08333H83.9167C87.8231 3.08333 91 4.99637 91 7.34735V37.611C91 39.962 87.8231 41.875 83.9167 41.875ZM13.0833 5.125C11.1301 5.125 9.54167 6.12235 9.54167 7.34735V37.611C9.54167 38.836 11.1301 39.8333 13.0833 39.8333H83.9167C85.8699 39.8333 87.4583 38.836 87.4583 37.611V7.34735C87.4583 6.12235 85.8699 5.125 83.9167 5.125H13.0833Z" fill="black"/>
<path d="M73.2917 45.9583H23.7083C23.2387 45.9583 22.7883 45.8508 22.4562 45.6593C22.1241 45.4679 21.9375 45.2082 21.9375 44.9375C21.9375 44.6667 22.1241 44.4071 22.4562 44.2157C22.7883 44.0242 23.2387 43.9167 23.7083 43.9167H73.2917C73.7613 43.9167 74.2117 44.0242 74.5438 44.2157C74.8759 44.4071 75.0625 44.6667 75.0625 44.9375C75.0625 45.2082 74.8759 45.4679 74.5438 45.6593C74.2117 45.8508 73.7613 45.9583 73.2917 45.9583Z" fill="black"/>
<path d="M48.5 45.9583C48.0303 45.9583 47.5799 45.8508 47.2478 45.6593C46.9157 45.4679 46.7292 45.2082 46.7292 44.9375V40.8542C46.7292 40.5834 46.9157 40.3238 47.2478 40.1323C47.5799 39.9409 48.0303 39.8333 48.5 39.8333C48.9696 39.8333 49.4201 39.9409 49.7522 40.1323C50.0843 40.3238 50.2708 40.5834 50.2708 40.8542V44.9375C50.2708 45.2082 50.0843 45.4679 49.7522 45.6593C49.4201 45.8508 48.9696 45.9583 48.5 45.9583Z" fill="black"/>
<path d="M48.5 38.8125C50.456 38.8125 52.0417 37.8984 52.0417 36.7708C52.0417 35.6433 50.456 34.7292 48.5 34.7292C46.544 34.7292 44.9583 35.6433 44.9583 36.7708C44.9583 37.8984 46.544 38.8125 48.5 38.8125Z" fill="black"/>
<path d="M7.77084 31.6667H89.2292V33.7083H7.77084V31.6667Z" fill="black"/>
<path d="M60.3013 11.9577L62.0216 11.2779C62.2509 11.1873 62.5147 11.142 62.8129 11.142C63.1111 11.142 63.3749 11.1873 63.6042 11.2779L79.6374 17.6132C79.8668 17.7039 79.9815 17.8081 79.9815 17.9259C79.9815 18.0438 79.8668 18.148 79.6374 18.2386L63.6042 24.5739C63.3749 24.6645 63.1111 24.7099 62.8129 24.7099C62.5147 24.7099 62.2509 24.6645 62.0216 24.5739L60.3013 23.8942C60.0719 23.8035 59.9572 23.6993 59.9572 23.5815C59.9572 23.4637 60.0719 23.3594 60.3013 23.2688L73.8228 17.9259L60.3013 12.5831C60.0719 12.4924 59.9572 12.3882 59.9572 12.2704C59.9572 12.1526 60.0719 12.0483 60.3013 11.9577ZM39.9673 26.4636L52.8008 8.9124C52.8925 8.79458 53.0703 8.70621 53.334 8.6473C53.5978 8.58839 53.8673 8.57706 54.1426 8.61331L56.2758 8.84443C56.5739 8.88068 56.7976 8.95092 56.9467 9.05515C57.0958 9.15938 57.1244 9.27041 57.0327 9.38823L44.1993 26.9395C44.1075 27.0573 43.9297 27.1456 43.666 27.2046C43.4022 27.2635 43.1327 27.2748 42.8574 27.2385L40.7243 27.0074C40.4261 26.9712 40.2024 26.9009 40.0533 26.7967C39.9042 26.6925 39.8756 26.5815 39.9673 26.4636ZM17.3626 17.6132L33.3958 11.2779C33.6251 11.1873 33.8889 11.142 34.1871 11.142C34.4853 11.142 34.7491 11.1873 34.9784 11.2779L36.6987 11.9577C36.9281 12.0483 37.0428 12.1526 37.0428 12.2704C37.0428 12.3882 36.9281 12.4924 36.6987 12.5831L23.1772 17.9259L36.6987 23.2688C36.9281 23.3594 37.0428 23.4637 37.0428 23.5815C37.0428 23.6993 36.9281 23.8035 36.6987 23.8942L34.9784 24.5739C34.7491 24.6645 34.4853 24.7099 34.1871 24.7099C33.8889 24.7099 33.6251 24.6645 33.3958 24.5739L17.3626 18.2386C17.1332 18.148 17.0185 18.0438 17.0185 17.9259C17.0185 17.8081 17.1332 17.7039 17.3626 17.6132Z" fill="black"/>
<path d="M147.022 18.792V18.152C146.2 18.824 145.251 19.16 144.174 19.16C142.787 19.16 141.662 18.68 140.798 17.72C139.934 16.7493 139.502 15.5333 139.502 14.072C139.502 12.6 139.944 11.4053 140.83 10.488C141.726 9.57067 142.819 9.112 144.11 9.112C145.4 9.112 146.51 9.37333 147.438 9.896C147.608 9.98133 147.694 10.0933 147.694 10.232V11.608C147.694 11.7147 147.651 11.8053 147.566 11.88C147.48 11.944 147.379 11.976 147.262 11.976C147.144 11.976 147.043 11.944 146.958 11.88C146.872 11.8053 146.83 11.7147 146.83 11.608V10.44C146.03 10.056 145.16 9.864 144.222 9.864C143.07 9.864 142.136 10.2587 141.422 11.048C140.718 11.8267 140.366 12.8453 140.366 14.104C140.366 15.3627 140.723 16.3973 141.438 17.208C142.152 18.008 143.059 18.408 144.158 18.408C145.256 18.408 146.211 18.0613 147.022 17.368V14.968H144.622C144.515 14.968 144.424 14.936 144.35 14.872C144.286 14.7973 144.254 14.7067 144.254 14.6C144.254 14.4933 144.286 14.4027 144.35 14.328C144.424 14.2533 144.515 14.216 144.622 14.216H147.47C147.747 14.216 147.886 14.3387 147.886 14.584V18.792C147.886 18.8987 147.843 18.984 147.758 19.048C147.672 19.1227 147.571 19.16 147.454 19.16C147.336 19.16 147.235 19.1227 147.15 19.048C147.064 18.984 147.022 18.8987 147.022 18.792ZM153.852 16.52C153.148 16.328 152.545 16.232 152.044 16.232C151.553 16.232 151.148 16.328 150.828 16.52C150.519 16.712 150.364 16.984 150.364 17.336C150.364 17.6773 150.465 17.944 150.668 18.136C150.871 18.328 151.148 18.424 151.5 18.424C152.481 18.424 153.265 17.8907 153.852 16.824V16.52ZM155.132 18.248H155.756C155.863 18.248 155.948 18.2853 156.012 18.36C156.087 18.4347 156.124 18.5253 156.124 18.632C156.124 18.7387 156.087 18.8293 156.012 18.904C155.948 18.968 155.863 19 155.756 19H155.052C154.668 19 154.369 18.9147 154.156 18.744C153.953 18.5733 153.852 18.3333 153.852 18.024C153.852 17.9707 153.857 17.912 153.868 17.848C153.303 18.7227 152.481 19.16 151.404 19.16C150.807 19.16 150.337 19 149.996 18.68C149.665 18.36 149.5 17.9173 149.5 17.352C149.5 16.776 149.724 16.328 150.172 16.008C150.631 15.6773 151.196 15.512 151.868 15.512C152.551 15.512 153.212 15.624 153.852 15.848V14.744C153.852 14.232 153.665 13.9013 153.292 13.752C153.004 13.6453 152.604 13.592 152.092 13.592C151.591 13.592 151.127 13.6773 150.7 13.848V14.856C150.7 14.9627 150.657 15.0533 150.572 15.128C150.487 15.192 150.385 15.224 150.268 15.224C150.151 15.224 150.049 15.192 149.964 15.128C149.879 15.0533 149.836 14.9627 149.836 14.856V13.64C149.836 13.5013 149.905 13.3947 150.044 13.32C150.567 13.0107 151.26 12.856 152.124 12.856C152.988 12.856 153.633 13 154.06 13.288C154.487 13.5653 154.7 14.0507 154.7 14.744V17.944C154.7 18.1467 154.844 18.248 155.132 18.248ZM158.479 18.248H159.103C159.21 18.248 159.295 18.2853 159.359 18.36C159.434 18.4347 159.471 18.5253 159.471 18.632C159.471 18.7387 159.434 18.8293 159.359 18.904C159.295 18.968 159.21 19 159.103 19H158.479C157.615 19 157.183 18.6533 157.183 17.96V7.752H156.127C156.021 7.752 155.935 7.72 155.871 7.656C155.797 7.58133 155.759 7.49067 155.759 7.384C155.759 7.27733 155.797 7.18667 155.871 7.112C155.935 7.03733 156.021 7 156.127 7H157.615C157.733 7 157.834 7.03733 157.919 7.112C158.005 7.18667 158.047 7.27733 158.047 7.384V17.944C158.047 18.1467 158.191 18.248 158.479 18.248ZM164.788 18.792V10.024H163.844C163.738 10.024 163.647 9.992 163.572 9.928C163.508 9.85333 163.476 9.76267 163.476 9.656C163.476 9.54933 163.508 9.45867 163.572 9.384C163.647 9.30933 163.738 9.272 163.844 9.272H168.868C171.194 9.272 172.356 10.3227 172.356 12.424C172.356 14.5147 171.194 15.56 168.868 15.56H165.652V18.792C165.652 18.8987 165.61 18.984 165.524 19.048C165.439 19.1227 165.338 19.16 165.22 19.16C165.103 19.16 165.002 19.1227 164.916 19.048C164.831 18.984 164.788 18.8987 164.788 18.792ZM165.652 10.024V14.824H168.868C170.618 14.824 171.492 14.024 171.492 12.424C171.492 10.824 170.618 10.024 168.868 10.024H165.652ZM177.649 16.52C176.945 16.328 176.342 16.232 175.841 16.232C175.35 16.232 174.945 16.328 174.625 16.52C174.316 16.712 174.161 16.984 174.161 17.336C174.161 17.6773 174.262 17.944 174.465 18.136C174.668 18.328 174.945 18.424 175.297 18.424C176.278 18.424 177.062 17.8907 177.649 16.824V16.52ZM178.929 18.248H179.553C179.66 18.248 179.745 18.2853 179.809 18.36C179.884 18.4347 179.921 18.5253 179.921 18.632C179.921 18.7387 179.884 18.8293 179.809 18.904C179.745 18.968 179.66 19 179.553 19H178.849C178.465 19 178.166 18.9147 177.953 18.744C177.75 18.5733 177.649 18.3333 177.649 18.024C177.649 17.9707 177.654 17.912 177.665 17.848C177.1 18.7227 176.278 19.16 175.201 19.16C174.604 19.16 174.134 19 173.793 18.68C173.462 18.36 173.297 17.9173 173.297 17.352C173.297 16.776 173.521 16.328 173.969 16.008C174.428 15.6773 174.993 15.512 175.665 15.512C176.348 15.512 177.009 15.624 177.649 15.848V14.744C177.649 14.232 177.462 13.9013 177.089 13.752C176.801 13.6453 176.401 13.592 175.889 13.592C175.388 13.592 174.924 13.6773 174.497 13.848V14.856C174.497 14.9627 174.454 15.0533 174.369 15.128C174.284 15.192 174.182 15.224 174.065 15.224C173.948 15.224 173.846 15.192 173.761 15.128C173.676 15.0533 173.633 14.9627 173.633 14.856V13.64C173.633 13.5013 173.702 13.3947 173.841 13.32C174.364 13.0107 175.057 12.856 175.921 12.856C176.785 12.856 177.43 13 177.857 13.288C178.284 13.5653 178.497 14.0507 178.497 14.744V17.944C178.497 18.1467 178.641 18.248 178.929 18.248ZM182.276 18.248H182.9C183.007 18.248 183.092 18.2853 183.156 18.36C183.231 18.4347 183.268 18.5253 183.268 18.632C183.268 18.7387 183.231 18.8293 183.156 18.904C183.092 18.968 183.007 19 182.9 19H182.276C181.412 19 180.98 18.6533 180.98 17.96V7.752H179.924C179.817 7.752 179.732 7.72 179.668 7.656C179.593 7.58133 179.556 7.49067 179.556 7.384C179.556 7.27733 179.593 7.18667 179.668 7.112C179.732 7.03733 179.817 7 179.924 7H181.412C181.529 7 181.631 7.03733 181.716 7.112C181.801 7.18667 181.844 7.27733 181.844 7.384V17.944C181.844 18.1467 181.988 18.248 182.276 18.248ZM188.462 16.52C187.758 16.328 187.155 16.232 186.654 16.232C186.163 16.232 185.758 16.328 185.438 16.52C185.128 16.712 184.974 16.984 184.974 17.336C184.974 17.6773 185.075 17.944 185.278 18.136C185.48 18.328 185.758 18.424 186.11 18.424C187.091 18.424 187.875 17.8907 188.462 16.824V16.52ZM189.742 18.248H190.366C190.472 18.248 190.558 18.2853 190.622 18.36C190.696 18.4347 190.734 18.5253 190.734 18.632C190.734 18.7387 190.696 18.8293 190.622 18.904C190.558 18.968 190.472 19 190.366 19H189.662C189.278 19 188.979 18.9147 188.766 18.744C188.563 18.5733 188.462 18.3333 188.462 18.024C188.462 17.9707 188.467 17.912 188.478 17.848C187.912 18.7227 187.091 19.16 186.014 19.16C185.416 19.16 184.947 19 184.606 18.68C184.275 18.36 184.11 17.9173 184.11 17.352C184.11 16.776 184.334 16.328 184.782 16.008C185.24 15.6773 185.806 15.512 186.478 15.512C187.16 15.512 187.822 15.624 188.462 15.848V14.744C188.462 14.232 188.275 13.9013 187.902 13.752C187.614 13.6453 187.214 13.592 186.702 13.592C186.2 13.592 185.736 13.6773 185.31 13.848V14.856C185.31 14.9627 185.267 15.0533 185.182 15.128C185.096 15.192 184.995 15.224 184.878 15.224C184.76 15.224 184.659 15.192 184.574 15.128C184.488 15.0533 184.446 14.9627 184.446 14.856V13.64C184.446 13.5013 184.515 13.3947 184.654 13.32C185.176 13.0107 185.87 12.856 186.734 12.856C187.598 12.856 188.243 13 188.67 13.288C189.096 13.5653 189.31 14.0507 189.31 14.744V17.944C189.31 18.1467 189.454 18.248 189.742 18.248ZM191.377 18.376V17.08C191.377 16.9733 191.419 16.888 191.505 16.824C191.59 16.7493 191.691 16.712 191.809 16.712C191.926 16.712 192.027 16.7493 192.113 16.824C192.198 16.888 192.241 16.9733 192.241 17.08V18.168C192.753 18.3387 193.286 18.424 193.841 18.424C195.057 18.424 195.665 18.0827 195.665 17.4C195.665 16.888 195.094 16.5093 193.953 16.264C193.899 16.2533 193.782 16.2267 193.601 16.184C193.419 16.1413 193.27 16.1093 193.153 16.088C193.035 16.056 192.838 15.992 192.561 15.896C192.294 15.7893 192.102 15.6827 191.985 15.576C191.665 15.288 191.505 14.936 191.505 14.52C191.505 14.0933 191.643 13.752 191.921 13.496C192.209 13.2293 192.523 13.0587 192.865 12.984C193.206 12.8987 193.579 12.856 193.985 12.856C194.731 12.856 195.419 13 196.049 13.288C196.241 13.3733 196.337 13.4907 196.337 13.64V14.872C196.337 14.9787 196.294 15.0693 196.209 15.144C196.123 15.208 196.022 15.24 195.905 15.24C195.787 15.24 195.686 15.208 195.601 15.144C195.515 15.0693 195.473 14.9787 195.473 14.872V13.848C195.046 13.6773 194.55 13.592 193.985 13.592C192.897 13.592 192.353 13.9013 192.353 14.52C192.353 14.744 192.422 14.8987 192.561 14.984C192.71 15.0693 192.817 15.1333 192.881 15.176C192.955 15.2187 193.083 15.2613 193.265 15.304C193.521 15.368 193.782 15.4267 194.049 15.48C194.315 15.5333 194.534 15.5813 194.705 15.624C194.875 15.6667 195.089 15.7413 195.345 15.848C195.611 15.944 195.819 16.056 195.969 16.184C196.342 16.4827 196.529 16.872 196.529 17.352C196.529 17.832 196.369 18.216 196.049 18.504C195.739 18.7813 195.398 18.9573 195.025 19.032C194.662 19.1173 194.267 19.16 193.841 19.16C192.998 19.16 192.273 19.0213 191.665 18.744C191.473 18.6587 191.377 18.536 191.377 18.376ZM102.874 26.024H101.93C101.824 26.024 101.733 25.992 101.658 25.928C101.594 25.8533 101.562 25.7627 101.562 25.656C101.562 25.5493 101.594 25.4587 101.658 25.384C101.733 25.3093 101.824 25.272 101.93 25.272H109.002C109.28 25.272 109.418 25.4 109.418 25.656V26.968C109.418 27.0747 109.376 27.1653 109.29 27.24C109.205 27.304 109.104 27.336 108.986 27.336C108.869 27.336 108.768 27.304 108.682 27.24C108.597 27.1653 108.554 27.0747 108.554 26.968V26.024H103.738V29.736H107.786V29.144C107.786 29.0373 107.824 28.952 107.898 28.888C107.984 28.8133 108.085 28.776 108.202 28.776C108.32 28.776 108.416 28.8133 108.49 28.888C108.576 28.952 108.618 29.0373 108.618 29.144V31.096C108.618 31.2027 108.576 31.2933 108.49 31.368C108.416 31.432 108.32 31.464 108.202 31.464C108.085 31.464 107.984 31.432 107.898 31.368C107.824 31.2933 107.786 31.2027 107.786 31.096V30.488H103.738V34.792C103.738 34.8987 103.696 34.984 103.61 35.048C103.525 35.1227 103.424 35.16 103.306 35.16C103.189 35.16 103.088 35.1227 103.002 35.048C102.917 34.984 102.874 34.8987 102.874 34.792V26.024ZM116.78 34.248H117.532C117.638 34.248 117.724 34.2853 117.788 34.36C117.862 34.424 117.9 34.5093 117.9 34.616C117.9 34.7227 117.862 34.8133 117.788 34.888C117.724 34.9627 117.638 35 117.532 35H116.668C116.006 35 115.676 34.6373 115.676 33.912C115.036 34.744 114.23 35.16 113.26 35.16C112.684 35.16 112.209 35.016 111.836 34.728C111.473 34.4293 111.292 33.9973 111.292 33.432V30.072C111.292 29.8693 111.148 29.768 110.86 29.768H110.236C110.129 29.768 110.038 29.7307 109.964 29.656C109.9 29.5813 109.868 29.4907 109.868 29.384C109.868 29.2773 109.9 29.192 109.964 29.128C110.038 29.0533 110.129 29.016 110.236 29.016H110.86C111.724 29.016 112.156 29.3627 112.156 30.056V33.432C112.156 33.752 112.252 33.9973 112.444 34.168C112.646 34.3387 112.924 34.424 113.276 34.424C114.257 34.424 115.036 33.912 115.612 32.888V29.224C115.612 29.1173 115.654 29.032 115.74 28.968C115.825 28.8933 115.926 28.856 116.044 28.856C116.161 28.856 116.262 28.8933 116.348 28.968C116.433 29.032 116.476 29.1173 116.476 29.224V33.944C116.476 34.1467 116.577 34.248 116.78 34.248ZM120.44 34.248H121.064C121.171 34.248 121.256 34.2853 121.32 34.36C121.395 34.4347 121.432 34.5253 121.432 34.632C121.432 34.7387 121.395 34.8293 121.32 34.904C121.256 34.968 121.171 35 121.064 35H120.44C119.576 35 119.144 34.6533 119.144 33.96V23.752H118.088C117.982 23.752 117.896 23.72 117.832 23.656C117.758 23.5813 117.72 23.4907 117.72 23.384C117.72 23.2773 117.758 23.1867 117.832 23.112C117.896 23.0373 117.982 23 118.088 23H119.576C119.694 23 119.795 23.0373 119.88 23.112C119.966 23.1867 120.008 23.2773 120.008 23.384V33.944C120.008 34.1467 120.152 34.248 120.44 34.248ZM124.05 34.248H124.674C124.78 34.248 124.866 34.2853 124.93 34.36C125.004 34.4347 125.042 34.5253 125.042 34.632C125.042 34.7387 125.004 34.8293 124.93 34.904C124.866 34.968 124.78 35 124.674 35H124.05C123.186 35 122.754 34.6533 122.754 33.96V23.752H121.698C121.591 23.752 121.506 23.72 121.442 23.656C121.367 23.5813 121.33 23.4907 121.33 23.384C121.33 23.2773 121.367 23.1867 121.442 23.112C121.506 23.0373 121.591 23 121.698 23H123.186C123.303 23 123.404 23.0373 123.49 23.112C123.575 23.1867 123.618 23.2773 123.618 23.384V33.944C123.618 34.1467 123.762 34.248 124.05 34.248ZM130.095 31.864H126.367C126.26 31.864 126.17 31.832 126.095 31.768C126.031 31.6933 125.999 31.6027 125.999 31.496C125.999 31.3893 126.031 31.2987 126.095 31.224C126.17 31.1493 126.26 31.112 126.367 31.112H130.095C130.202 31.112 130.287 31.1493 130.351 31.224C130.426 31.2987 130.463 31.3893 130.463 31.496C130.463 31.6027 130.426 31.6933 130.351 31.768C130.287 31.832 130.202 31.864 130.095 31.864ZM133.062 32.792V33.896C133.776 34.2373 134.683 34.408 135.782 34.408C136.88 34.408 137.707 34.2373 138.262 33.896C138.816 33.544 139.094 33.0533 139.094 32.424C139.094 31.784 138.832 31.3093 138.31 31C137.787 30.6907 136.955 30.4293 135.814 30.216C134.672 29.992 133.814 29.6987 133.238 29.336C132.672 28.9733 132.39 28.4027 132.39 27.624C132.39 25.9493 133.632 25.112 136.118 25.112C137.44 25.112 138.534 25.352 139.398 25.832C139.558 25.928 139.638 26.04 139.638 26.168V27.48C139.638 27.5867 139.595 27.6773 139.51 27.752C139.424 27.816 139.323 27.848 139.206 27.848C139.088 27.848 138.987 27.816 138.902 27.752C138.816 27.6773 138.774 27.5867 138.774 27.48V26.376C138.038 26.0347 137.163 25.864 136.15 25.864C135.147 25.864 134.411 26.008 133.942 26.296C133.483 26.584 133.254 27.0267 133.254 27.624C133.254 28.1893 133.552 28.6107 134.15 28.888C134.555 29.0907 135.099 29.2667 135.782 29.416C136.475 29.5547 136.966 29.6613 137.254 29.736C137.542 29.8107 137.878 29.928 138.262 30.088C138.646 30.2373 138.944 30.408 139.158 30.6C139.371 30.792 139.558 31.048 139.718 31.368C139.878 31.6773 139.958 32.0347 139.958 32.44C139.958 33.272 139.606 33.9333 138.902 34.424C138.208 34.9147 137.211 35.16 135.91 35.16C135.312 35.16 134.667 35.096 133.974 34.968C133.28 34.8293 132.758 34.648 132.406 34.424C132.267 34.3387 132.198 34.232 132.198 34.104V32.792C132.198 32.6853 132.24 32.6 132.326 32.536C132.411 32.4613 132.512 32.424 132.63 32.424C132.747 32.424 132.848 32.4613 132.934 32.536C133.019 32.6 133.062 32.6853 133.062 32.792ZM145.804 33.976C145.889 33.9227 145.985 33.9067 146.092 33.928C146.209 33.9493 146.289 33.9973 146.332 34.072C146.374 34.136 146.396 34.1947 146.396 34.248C146.396 34.408 146.337 34.5253 146.22 34.6C145.58 34.9733 144.892 35.16 144.156 35.16C143.42 35.16 142.892 35.0107 142.572 34.712C142.252 34.4027 142.092 33.896 142.092 33.192V29.768H141.196C141.089 29.768 140.998 29.736 140.924 29.672C140.86 29.5973 140.828 29.5067 140.828 29.4C140.828 29.2933 140.86 29.2027 140.924 29.128C140.998 29.0533 141.089 29.016 141.196 29.016H142.092V26.728C142.092 26.6213 142.134 26.536 142.22 26.472C142.305 26.3973 142.406 26.36 142.524 26.36C142.641 26.36 142.742 26.3973 142.828 26.472C142.913 26.536 142.956 26.6213 142.956 26.728V29.016H145.644C145.75 29.016 145.836 29.0533 145.9 29.128C145.974 29.2027 146.012 29.2933 146.012 29.4C146.012 29.5067 145.974 29.5973 145.9 29.672C145.836 29.736 145.75 29.768 145.644 29.768H142.956V33.192C142.956 33.64 143.046 33.96 143.228 34.152C143.42 34.3333 143.766 34.424 144.268 34.424C144.78 34.424 145.292 34.2747 145.804 33.976ZM151.594 32.52C150.89 32.328 150.288 32.232 149.786 32.232C149.296 32.232 148.89 32.328 148.57 32.52C148.261 32.712 148.106 32.984 148.106 33.336C148.106 33.6773 148.208 33.944 148.41 34.136C148.613 34.328 148.89 34.424 149.242 34.424C150.224 34.424 151.008 33.8907 151.594 32.824V32.52ZM152.874 34.248H153.498C153.605 34.248 153.69 34.2853 153.754 34.36C153.829 34.4347 153.866 34.5253 153.866 34.632C153.866 34.7387 153.829 34.8293 153.754 34.904C153.69 34.968 153.605 35 153.498 35H152.794C152.41 35 152.112 34.9147 151.898 34.744C151.696 34.5733 151.594 34.3333 151.594 34.024C151.594 33.9707 151.6 33.912 151.61 33.848C151.045 34.7227 150.224 35.16 149.146 35.16C148.549 35.16 148.08 35 147.738 34.68C147.408 34.36 147.242 33.9173 147.242 33.352C147.242 32.776 147.466 32.328 147.914 32.008C148.373 31.6773 148.938 31.512 149.61 31.512C150.293 31.512 150.954 31.624 151.594 31.848V30.744C151.594 30.232 151.408 29.9013 151.034 29.752C150.746 29.6453 150.346 29.592 149.834 29.592C149.333 29.592 148.869 29.6773 148.442 29.848V30.856C148.442 30.9627 148.4 31.0533 148.314 31.128C148.229 31.192 148.128 31.224 148.01 31.224C147.893 31.224 147.792 31.192 147.706 31.128C147.621 31.0533 147.578 30.9627 147.578 30.856V29.64C147.578 29.5013 147.648 29.3947 147.786 29.32C148.309 29.0107 149.002 28.856 149.866 28.856C150.73 28.856 151.376 29 151.802 29.288C152.229 29.5653 152.442 30.0507 152.442 30.744V33.944C152.442 34.1467 152.586 34.248 152.874 34.248ZM159.309 33.464C159.395 33.336 159.48 33.272 159.565 33.272C159.661 33.272 159.757 33.2933 159.853 33.336C160.003 33.4 160.077 33.4907 160.077 33.608C160.077 33.7147 160.061 33.7947 160.029 33.848C159.485 34.7227 158.621 35.16 157.437 35.16C156.531 35.16 155.805 34.856 155.261 34.248C154.717 33.6293 154.445 32.872 154.445 31.976C154.445 31.08 154.728 30.3387 155.293 29.752C155.869 29.1547 156.579 28.856 157.421 28.856C158.275 28.856 159.016 29.0533 159.645 29.448C159.773 29.5333 159.837 29.6347 159.837 29.752V31.096C159.837 31.2027 159.795 31.2933 159.709 31.368C159.624 31.432 159.523 31.464 159.405 31.464C159.288 31.464 159.187 31.432 159.101 31.368C159.016 31.2933 158.973 31.2027 158.973 31.096V29.96C158.547 29.7147 158.035 29.592 157.437 29.592C156.84 29.592 156.333 29.816 155.917 30.264C155.501 30.712 155.293 31.2933 155.293 32.008C155.293 32.712 155.491 33.2933 155.885 33.752C156.291 34.2 156.808 34.424 157.437 34.424C158.269 34.424 158.893 34.104 159.309 33.464ZM162.584 31.608C163.054 31.6827 163.534 31.72 164.024 31.72C164.515 31.72 164.968 31.624 165.384 31.432C165.811 31.2293 166.024 30.9093 166.024 30.472C166.024 29.864 165.656 29.56 164.92 29.56C163.928 29.56 163.15 30.0827 162.584 31.128V31.608ZM167.112 34.424C167.219 34.424 167.304 34.4613 167.368 34.536C167.443 34.6 167.48 34.6853 167.48 34.792C167.48 34.8987 167.443 34.984 167.368 35.048C167.304 35.1227 167.219 35.16 167.112 35.16C166.163 35.16 165.294 34.904 164.504 34.392C163.726 33.8693 163.086 33.2187 162.584 32.44V34.792C162.584 34.8987 162.542 34.984 162.456 35.048C162.371 35.1227 162.27 35.16 162.152 35.16C162.035 35.16 161.934 35.1227 161.848 35.048C161.763 34.984 161.72 34.8987 161.72 34.792V23.752H160.664C160.558 23.752 160.472 23.72 160.408 23.656C160.334 23.5813 160.296 23.4907 160.296 23.384C160.296 23.2773 160.334 23.1867 160.408 23.112C160.472 23.0373 160.558 23 160.664 23H162.152C162.259 23 162.355 23.0373 162.44 23.112C162.536 23.1867 162.584 23.2773 162.584 23.384V30.088C163.203 29.2453 163.982 28.824 164.92 28.824C165.528 28.824 166.008 28.968 166.36 29.256C166.712 29.5333 166.888 29.9227 166.888 30.424C166.888 30.9253 166.728 31.3307 166.408 31.64C165.886 32.1413 165.15 32.392 164.2 32.392C163.848 32.392 163.534 32.3547 163.256 32.28C163.715 32.888 164.291 33.4 164.984 33.816C165.688 34.2213 166.398 34.424 167.112 34.424ZM173.754 26.024V34.248H176.202C177.439 34.248 178.404 33.8907 179.098 33.176C179.802 32.4507 180.154 31.448 180.154 30.168C180.154 28.8773 179.796 27.864 179.082 27.128C178.367 26.392 177.407 26.024 176.202 26.024H173.754ZM172.89 26.024H171.93C171.823 26.024 171.732 25.992 171.658 25.928C171.594 25.8533 171.562 25.7627 171.562 25.656C171.562 25.5493 171.594 25.4587 171.658 25.384C171.732 25.3093 171.823 25.272 171.93 25.272H176.202C177.652 25.272 178.815 25.7147 179.69 26.6C180.575 27.4747 181.018 28.6587 181.018 30.152C181.018 31.6453 180.586 32.8293 179.722 33.704C178.858 34.568 177.684 35 176.202 35H173.306C173.028 35 172.89 34.8773 172.89 34.632V26.024ZM187.309 31.48C187.277 30.904 187.107 30.4453 186.797 30.104C186.499 29.7627 186.061 29.592 185.485 29.592C184.92 29.592 184.445 29.768 184.061 30.12C183.677 30.4613 183.437 30.9147 183.341 31.48H187.309ZM187.341 33.464C187.416 33.336 187.501 33.272 187.597 33.272C187.693 33.272 187.789 33.2987 187.885 33.352C187.981 33.3947 188.045 33.4693 188.077 33.576C188.12 33.672 188.115 33.7627 188.061 33.848C187.517 34.7227 186.653 35.16 185.469 35.16C184.531 35.16 183.789 34.8613 183.245 34.264C182.712 33.656 182.445 32.8933 182.445 31.976C182.445 31.0587 182.723 30.312 183.277 29.736C183.832 29.1493 184.563 28.856 185.469 28.856C186.376 28.856 187.048 29.128 187.485 29.672C187.933 30.216 188.157 30.9413 188.157 31.848C188.157 32.0933 188.019 32.216 187.741 32.216L183.309 32.232C183.352 32.8933 183.565 33.4267 183.949 33.832C184.344 34.2267 184.851 34.424 185.469 34.424C186.301 34.424 186.925 34.104 187.341 33.464ZM194.36 29.08C194.434 28.92 194.52 28.84 194.616 28.84C194.872 28.84 195.048 28.936 195.144 29.128C195.165 29.1813 195.176 29.2347 195.176 29.288C195.176 29.3307 195.165 29.3733 195.144 29.416L192.52 34.904C192.434 35.0747 192.296 35.16 192.104 35.16C191.922 35.16 191.789 35.0747 191.704 34.904L189.064 29.416C189.042 29.3733 189.032 29.3253 189.032 29.272C189.032 29.112 189.128 28.9893 189.32 28.904C189.405 28.8613 189.496 28.84 189.592 28.84C189.698 28.84 189.789 28.92 189.864 29.08L192.12 33.944L194.36 29.08ZM201.059 31.48C201.027 30.904 200.857 30.4453 200.547 30.104C200.249 29.7627 199.811 29.592 199.235 29.592C198.67 29.592 198.195 29.768 197.811 30.12C197.427 30.4613 197.187 30.9147 197.091 31.48H201.059ZM201.091 33.464C201.166 33.336 201.251 33.272 201.347 33.272C201.443 33.272 201.539 33.2987 201.635 33.352C201.731 33.3947 201.795 33.4693 201.827 33.576C201.87 33.672 201.865 33.7627 201.811 33.848C201.267 34.7227 200.403 35.16 199.219 35.16C198.281 35.16 197.539 34.8613 196.995 34.264C196.462 33.656 196.195 32.8933 196.195 31.976C196.195 31.0587 196.473 30.312 197.027 29.736C197.582 29.1493 198.313 28.856 199.219 28.856C200.126 28.856 200.798 29.128 201.235 29.672C201.683 30.216 201.907 30.9413 201.907 31.848C201.907 32.0933 201.769 32.216 201.491 32.216L197.059 32.232C197.102 32.8933 197.315 33.4267 197.699 33.832C198.094 34.2267 198.601 34.424 199.219 34.424C200.051 34.424 200.675 34.104 201.091 33.464ZM205.018 34.248H205.642C205.749 34.248 205.834 34.2853 205.898 34.36C205.973 34.4347 206.01 34.5253 206.01 34.632C206.01 34.7387 205.973 34.8293 205.898 34.904C205.834 34.968 205.749 35 205.642 35H205.018C204.154 35 203.722 34.6533 203.722 33.96V23.752H202.666C202.56 23.752 202.474 23.72 202.41 23.656C202.336 23.5813 202.298 23.4907 202.298 23.384C202.298 23.2773 202.336 23.1867 202.41 23.112C202.474 23.0373 202.56 23 202.666 23H204.154C204.272 23 204.373 23.0373 204.458 23.112C204.544 23.1867 204.586 23.2773 204.586 23.384V33.944C204.586 34.1467 204.73 34.248 205.018 34.248ZM209.908 34.424C210.558 34.424 211.086 34.2 211.492 33.752C211.908 33.304 212.116 32.728 212.116 32.024C212.116 31.3093 211.908 30.728 211.492 30.28C211.086 29.8213 210.558 29.592 209.908 29.592C209.257 29.592 208.724 29.8213 208.308 30.28C207.902 30.728 207.7 31.3093 207.7 32.024C207.7 32.728 207.902 33.304 208.308 33.752C208.724 34.2 209.257 34.424 209.908 34.424ZM207.684 34.28C207.118 33.6827 206.836 32.9253 206.836 32.008C206.836 31.0907 207.124 30.3387 207.7 29.752C208.276 29.1547 209.012 28.856 209.908 28.856C210.804 28.856 211.534 29.1547 212.1 29.752C212.676 30.3387 212.964 31.096 212.964 32.024C212.964 32.9413 212.676 33.6933 212.1 34.28C211.534 34.8667 210.798 35.16 209.892 35.16C208.996 35.16 208.26 34.8667 207.684 34.28ZM215.953 30.152C216.508 29.288 217.244 28.856 218.161 28.856C219.089 28.856 219.793 29.1547 220.273 29.752C220.764 30.3387 221.009 31.0853 221.009 31.992C221.009 32.8987 220.759 33.656 220.257 34.264C219.767 34.8613 219.079 35.16 218.193 35.16C217.319 35.16 216.593 34.856 216.017 34.248V38.296C216.017 38.4027 215.975 38.488 215.889 38.552C215.804 38.6267 215.703 38.664 215.585 38.664C215.468 38.664 215.367 38.6267 215.281 38.552C215.196 38.488 215.153 38.4027 215.153 38.296V30.072C215.153 29.8693 215.052 29.768 214.849 29.768H214.097C213.991 29.768 213.9 29.736 213.825 29.672C213.761 29.5973 213.729 29.5067 213.729 29.4C213.729 29.2933 213.761 29.2027 213.825 29.128C213.9 29.0533 213.991 29.016 214.097 29.016H214.961C215.644 29.016 215.975 29.3947 215.953 30.152ZM216.017 33.464C216.7 34.104 217.383 34.424 218.065 34.424C218.748 34.424 219.265 34.2 219.617 33.752C219.98 33.304 220.161 32.712 220.161 31.976C220.161 31.24 219.985 30.6587 219.633 30.232C219.281 29.8053 218.796 29.592 218.177 29.592C217.271 29.592 216.551 30.0987 216.017 31.112V33.464ZM227.231 31.48C227.199 30.904 227.029 30.4453 226.719 30.104C226.421 29.7627 225.983 29.592 225.407 29.592C224.842 29.592 224.367 29.768 223.983 30.12C223.599 30.4613 223.359 30.9147 223.263 31.48H227.231ZM227.263 33.464C227.338 33.336 227.423 33.272 227.519 33.272C227.615 33.272 227.711 33.2987 227.807 33.352C227.903 33.3947 227.967 33.4693 227.999 33.576C228.042 33.672 228.037 33.7627 227.983 33.848C227.439 34.7227 226.575 35.16 225.391 35.16C224.453 35.16 223.711 34.8613 223.167 34.264C222.634 33.656 222.367 32.8933 222.367 31.976C222.367 31.0587 222.645 30.312 223.199 29.736C223.754 29.1493 224.485 28.856 225.391 28.856C226.298 28.856 226.97 29.128 227.407 29.672C227.855 30.216 228.079 30.9413 228.079 31.848C228.079 32.0933 227.941 32.216 227.663 32.216L223.231 32.232C223.274 32.8933 223.487 33.4267 223.871 33.832C224.266 34.2267 224.773 34.424 225.391 34.424C226.223 34.424 226.847 34.104 227.263 33.464ZM229.206 29.016H230.022C230.694 29.016 231.041 29.3787 231.062 30.104C231.638 29.272 232.321 28.856 233.11 28.856C233.558 28.856 233.937 28.9413 234.246 29.112C234.396 29.1973 234.47 29.3093 234.47 29.448V30.792C234.47 30.8987 234.428 30.9893 234.342 31.064C234.257 31.128 234.156 31.16 234.038 31.16C233.921 31.16 233.82 31.128 233.734 31.064C233.649 30.9893 233.606 30.8987 233.606 30.792V29.672C233.468 29.6187 233.26 29.592 232.982 29.592C232.705 29.592 232.39 29.7253 232.038 29.992C231.686 30.248 231.382 30.632 231.126 31.144V34.792C231.126 34.8987 231.084 34.984 230.998 35.048C230.913 35.1227 230.812 35.16 230.694 35.16C230.577 35.16 230.476 35.1227 230.39 35.048C230.305 34.984 230.262 34.8987 230.262 34.792V30.072C230.262 29.8693 230.156 29.768 229.942 29.768H229.206C229.1 29.768 229.009 29.736 228.934 29.672C228.87 29.5973 228.838 29.5067 228.838 29.4C228.838 29.2933 228.87 29.2027 228.934 29.128C229.009 29.0533 229.1 29.016 229.206 29.016Z" fill="black"/>
</g>
<defs>
<clipPath id="clip0">
<rect width="254" height="50" fill="white"/>
</clipPath>
</defs>
</svg>
