<svg width="228" height="52" viewBox="0 0 228 52" fill="none" xmlns="http://www.w3.org/2000/svg">
<g clip-path="url(#clip0)">
<path d="M25 0C18.3696 0 12.0107 2.63392 7.32233 7.32233C2.63392 12.0107 0 18.3696 0 25C0 31.6304 2.63392 37.9893 7.32233 42.6777C12.0107 47.3661 18.3696 50 25 50C31.6304 50 37.9893 47.3661 42.6777 42.6777C47.3661 37.9893 50 31.6304 50 25C50 18.3696 47.3661 12.0107 42.6777 7.32233C37.9893 2.63392 31.6304 0 25 0V0ZM16.183 14.2857H33.817C35.6027 14.2857 37.0536 15.7366 37.0536 17.5223V29.7991C37.0536 31.5848 35.6027 33.0357 33.817 33.0357H28.125V35.7143H30.3571V36.6071H19.6429V35.7143H21.875V33.0357H16.183C14.3973 33.0357 12.9464 31.5848 12.9464 29.7991V17.5223C12.9464 15.7366 14.3973 14.2857 16.183 14.2857ZM16.183 15.1786C14.8902 15.1786 13.8393 16.2295 13.8393 17.5223V29.7991C13.8393 31.092 14.8902 32.1429 16.183 32.1429H33.817C35.1098 32.1429 36.1607 31.092 36.1607 29.7991V17.5223C36.1607 16.2295 35.1116 15.1786 33.817 15.1786H16.183ZM22.7679 33.0357V35.7143H27.2321V33.0357H22.7679Z" fill="black"/>
<path d="M28.9048 18.9775L29.4741 18.4572C29.5499 18.3879 29.6372 18.3532 29.7359 18.3532C29.8346 18.3532 29.9218 18.3879 29.9977 18.4572L35.3028 23.3057C35.3787 23.375 35.4167 23.4548 35.4167 23.545C35.4167 23.6351 35.3787 23.7149 35.3028 23.7843L29.9977 28.6327C29.9218 28.7021 29.8346 28.7368 29.7359 28.7368C29.6372 28.7368 29.5499 28.7021 29.4741 28.6327L28.9048 28.1125C28.8289 28.0431 28.791 27.9634 28.791 27.8732C28.791 27.783 28.8289 27.7033 28.9048 27.6339L33.3789 23.545L28.9048 19.4561C28.8289 19.3867 28.791 19.3069 28.791 19.2168C28.791 19.1266 28.8289 19.0468 28.9048 18.9775ZM22.1767 30.0789L26.423 16.6469C26.4534 16.5567 26.5122 16.4891 26.5995 16.444C26.6868 16.3989 26.776 16.3902 26.867 16.418L27.5729 16.5948C27.6715 16.6226 27.7455 16.6763 27.7949 16.7561C27.8442 16.8359 27.8537 16.9209 27.8233 17.011L23.577 30.4431C23.5466 30.5333 23.4878 30.6009 23.4005 30.646C23.3132 30.6911 23.2241 30.6997 23.133 30.672L22.4271 30.4951C22.3285 30.4674 22.2545 30.4136 22.2052 30.3338C22.1558 30.2541 22.1463 30.1691 22.1767 30.0789ZM14.6972 23.3057L20.0023 18.4572C20.0782 18.3879 20.1655 18.3532 20.2641 18.3532C20.3628 18.3532 20.4501 18.3879 20.526 18.4572L21.0952 18.9775C21.1711 19.0468 21.209 19.1266 21.209 19.2168C21.209 19.3069 21.1711 19.3867 21.0952 19.4561L16.6211 23.545L21.0952 27.6339C21.1711 27.7033 21.209 27.783 21.209 27.8732C21.209 27.9634 21.1711 28.0431 21.0952 28.1125L20.526 28.6327C20.4501 28.7021 20.3628 28.7368 20.2641 28.7368C20.1655 28.7368 20.0782 28.7021 20.0023 28.6327L14.6972 23.7843C14.6213 23.7149 14.5833 23.6351 14.5833 23.545C14.5833 23.4548 14.6213 23.375 14.6972 23.3057Z" fill="#E8A525"/>
</g>
<g filter="url(#filter0_i)">
<path d="M108.899 24.766V24.046C107.975 24.802 106.907 25.18 105.695 25.18C104.135 25.18 102.869 24.64 101.897 23.56C100.925 22.468 100.439 21.1 100.439 19.456C100.439 17.8 100.937 16.456 101.933 15.424C102.941 14.392 104.171 13.876 105.623 13.876C107.075 13.876 108.323 14.17 109.367 14.758C109.559 14.854 109.655 14.98 109.655 15.136V16.684C109.655 16.804 109.607 16.906 109.511 16.99C109.415 17.062 109.301 17.098 109.169 17.098C109.037 17.098 108.923 17.062 108.827 16.99C108.731 16.906 108.683 16.804 108.683 16.684V15.37C107.783 14.938 106.805 14.722 105.749 14.722C104.453 14.722 103.403 15.166 102.599 16.054C101.807 16.93 101.411 18.076 101.411 19.492C101.411 20.908 101.813 22.072 102.617 22.984C103.421 23.884 104.441 24.334 105.677 24.334C106.913 24.334 107.987 23.944 108.899 23.164V20.464H106.199C106.079 20.464 105.977 20.428 105.893 20.356C105.821 20.272 105.785 20.17 105.785 20.05C105.785 19.93 105.821 19.828 105.893 19.744C105.977 19.66 106.079 19.618 106.199 19.618H109.403C109.715 19.618 109.871 19.756 109.871 20.032V24.766C109.871 24.886 109.823 24.982 109.727 25.054C109.631 25.138 109.517 25.18 109.385 25.18C109.253 25.18 109.139 25.138 109.043 25.054C108.947 24.982 108.899 24.886 108.899 24.766ZM116.584 22.21C115.792 21.994 115.114 21.886 114.55 21.886C113.998 21.886 113.542 21.994 113.182 22.21C112.834 22.426 112.66 22.732 112.66 23.128C112.66 23.512 112.774 23.812 113.002 24.028C113.23 24.244 113.542 24.352 113.938 24.352C115.042 24.352 115.924 23.752 116.584 22.552V22.21ZM118.024 24.154H118.726C118.846 24.154 118.942 24.196 119.014 24.28C119.098 24.364 119.14 24.466 119.14 24.586C119.14 24.706 119.098 24.808 119.014 24.892C118.942 24.964 118.846 25 118.726 25H117.934C117.502 25 117.166 24.904 116.926 24.712C116.698 24.52 116.584 24.25 116.584 23.902C116.584 23.842 116.59 23.776 116.602 23.704C115.966 24.688 115.042 25.18 113.83 25.18C113.158 25.18 112.63 25 112.246 24.64C111.874 24.28 111.688 23.782 111.688 23.146C111.688 22.498 111.94 21.994 112.444 21.634C112.96 21.262 113.596 21.076 114.352 21.076C115.12 21.076 115.864 21.202 116.584 21.454V20.212C116.584 19.636 116.374 19.264 115.954 19.096C115.63 18.976 115.18 18.916 114.604 18.916C114.04 18.916 113.518 19.012 113.038 19.204V20.338C113.038 20.458 112.99 20.56 112.894 20.644C112.798 20.716 112.684 20.752 112.552 20.752C112.42 20.752 112.306 20.716 112.21 20.644C112.114 20.56 112.066 20.458 112.066 20.338V18.97C112.066 18.814 112.144 18.694 112.3 18.61C112.888 18.262 113.668 18.088 114.64 18.088C115.612 18.088 116.338 18.25 116.818 18.574C117.298 18.886 117.538 19.432 117.538 20.212V23.812C117.538 24.04 117.7 24.154 118.024 24.154ZM121.789 24.154H122.491C122.611 24.154 122.707 24.196 122.779 24.28C122.863 24.364 122.905 24.466 122.905 24.586C122.905 24.706 122.863 24.808 122.779 24.892C122.707 24.964 122.611 25 122.491 25H121.789C120.817 25 120.331 24.61 120.331 23.83V12.346H119.143C119.023 12.346 118.927 12.31 118.855 12.238C118.771 12.154 118.729 12.052 118.729 11.932C118.729 11.812 118.771 11.71 118.855 11.626C118.927 11.542 119.023 11.5 119.143 11.5H120.817C120.949 11.5 121.063 11.542 121.159 11.626C121.255 11.71 121.303 11.812 121.303 11.932V23.812C121.303 24.04 121.465 24.154 121.789 24.154ZM128.887 24.766V14.902H127.825C127.705 14.902 127.603 14.866 127.519 14.794C127.447 14.71 127.411 14.608 127.411 14.488C127.411 14.368 127.447 14.266 127.519 14.182C127.603 14.098 127.705 14.056 127.825 14.056H133.477C136.093 14.056 137.401 15.238 137.401 17.602C137.401 19.954 136.093 21.13 133.477 21.13H129.859V24.766C129.859 24.886 129.811 24.982 129.715 25.054C129.619 25.138 129.505 25.18 129.373 25.18C129.241 25.18 129.127 25.138 129.031 25.054C128.935 24.982 128.887 24.886 128.887 24.766ZM129.859 14.902V20.302H133.477C135.445 20.302 136.429 19.402 136.429 17.602C136.429 15.802 135.445 14.902 133.477 14.902H129.859ZM143.355 22.21C142.563 21.994 141.885 21.886 141.321 21.886C140.769 21.886 140.313 21.994 139.953 22.21C139.605 22.426 139.431 22.732 139.431 23.128C139.431 23.512 139.545 23.812 139.773 24.028C140.001 24.244 140.313 24.352 140.709 24.352C141.813 24.352 142.695 23.752 143.355 22.552V22.21ZM144.795 24.154H145.497C145.617 24.154 145.713 24.196 145.785 24.28C145.869 24.364 145.911 24.466 145.911 24.586C145.911 24.706 145.869 24.808 145.785 24.892C145.713 24.964 145.617 25 145.497 25H144.705C144.273 25 143.937 24.904 143.697 24.712C143.469 24.52 143.355 24.25 143.355 23.902C143.355 23.842 143.361 23.776 143.373 23.704C142.737 24.688 141.813 25.18 140.601 25.18C139.929 25.18 139.401 25 139.017 24.64C138.645 24.28 138.459 23.782 138.459 23.146C138.459 22.498 138.711 21.994 139.215 21.634C139.731 21.262 140.367 21.076 141.123 21.076C141.891 21.076 142.635 21.202 143.355 21.454V20.212C143.355 19.636 143.145 19.264 142.725 19.096C142.401 18.976 141.951 18.916 141.375 18.916C140.811 18.916 140.289 19.012 139.809 19.204V20.338C139.809 20.458 139.761 20.56 139.665 20.644C139.569 20.716 139.455 20.752 139.323 20.752C139.191 20.752 139.077 20.716 138.981 20.644C138.885 20.56 138.837 20.458 138.837 20.338V18.97C138.837 18.814 138.915 18.694 139.071 18.61C139.659 18.262 140.439 18.088 141.411 18.088C142.383 18.088 143.109 18.25 143.589 18.574C144.069 18.886 144.309 19.432 144.309 20.212V23.812C144.309 24.04 144.471 24.154 144.795 24.154ZM148.561 24.154H149.263C149.383 24.154 149.479 24.196 149.551 24.28C149.635 24.364 149.677 24.466 149.677 24.586C149.677 24.706 149.635 24.808 149.551 24.892C149.479 24.964 149.383 25 149.263 25H148.561C147.589 25 147.103 24.61 147.103 23.83V12.346H145.915C145.795 12.346 145.699 12.31 145.627 12.238C145.543 12.154 145.501 12.052 145.501 11.932C145.501 11.812 145.543 11.71 145.627 11.626C145.699 11.542 145.795 11.5 145.915 11.5H147.589C147.721 11.5 147.835 11.542 147.931 11.626C148.027 11.71 148.075 11.812 148.075 11.932V23.812C148.075 24.04 148.237 24.154 148.561 24.154ZM155.519 22.21C154.727 21.994 154.049 21.886 153.485 21.886C152.933 21.886 152.477 21.994 152.117 22.21C151.769 22.426 151.595 22.732 151.595 23.128C151.595 23.512 151.709 23.812 151.937 24.028C152.165 24.244 152.477 24.352 152.873 24.352C153.977 24.352 154.859 23.752 155.519 22.552V22.21ZM156.959 24.154H157.661C157.781 24.154 157.877 24.196 157.949 24.28C158.033 24.364 158.075 24.466 158.075 24.586C158.075 24.706 158.033 24.808 157.949 24.892C157.877 24.964 157.781 25 157.661 25H156.869C156.437 25 156.101 24.904 155.861 24.712C155.633 24.52 155.519 24.25 155.519 23.902C155.519 23.842 155.525 23.776 155.537 23.704C154.901 24.688 153.977 25.18 152.765 25.18C152.093 25.18 151.565 25 151.181 24.64C150.809 24.28 150.623 23.782 150.623 23.146C150.623 22.498 150.875 21.994 151.379 21.634C151.895 21.262 152.531 21.076 153.287 21.076C154.055 21.076 154.799 21.202 155.519 21.454V20.212C155.519 19.636 155.309 19.264 154.889 19.096C154.565 18.976 154.115 18.916 153.539 18.916C152.975 18.916 152.453 19.012 151.973 19.204V20.338C151.973 20.458 151.925 20.56 151.829 20.644C151.733 20.716 151.619 20.752 151.487 20.752C151.355 20.752 151.241 20.716 151.145 20.644C151.049 20.56 151.001 20.458 151.001 20.338V18.97C151.001 18.814 151.079 18.694 151.235 18.61C151.823 18.262 152.603 18.088 153.575 18.088C154.547 18.088 155.273 18.25 155.753 18.574C156.233 18.886 156.473 19.432 156.473 20.212V23.812C156.473 24.04 156.635 24.154 156.959 24.154ZM158.799 24.298V22.84C158.799 22.72 158.847 22.624 158.943 22.552C159.039 22.468 159.153 22.426 159.285 22.426C159.417 22.426 159.531 22.468 159.627 22.552C159.723 22.624 159.771 22.72 159.771 22.84V24.064C160.347 24.256 160.947 24.352 161.571 24.352C162.939 24.352 163.623 23.968 163.623 23.2C163.623 22.624 162.981 22.198 161.697 21.922C161.637 21.91 161.505 21.88 161.301 21.832C161.097 21.784 160.929 21.748 160.797 21.724C160.665 21.688 160.443 21.616 160.131 21.508C159.831 21.388 159.615 21.268 159.483 21.148C159.123 20.824 158.943 20.428 158.943 19.96C158.943 19.48 159.099 19.096 159.411 18.808C159.735 18.508 160.089 18.316 160.473 18.232C160.857 18.136 161.277 18.088 161.733 18.088C162.573 18.088 163.347 18.25 164.055 18.574C164.271 18.67 164.379 18.802 164.379 18.97V20.356C164.379 20.476 164.331 20.578 164.235 20.662C164.139 20.734 164.025 20.77 163.893 20.77C163.761 20.77 163.647 20.734 163.551 20.662C163.455 20.578 163.407 20.476 163.407 20.356V19.204C162.927 19.012 162.369 18.916 161.733 18.916C160.509 18.916 159.897 19.264 159.897 19.96C159.897 20.212 159.975 20.386 160.131 20.482C160.299 20.578 160.419 20.65 160.491 20.698C160.575 20.746 160.719 20.794 160.923 20.842C161.211 20.914 161.505 20.98 161.805 21.04C162.105 21.1 162.351 21.154 162.543 21.202C162.735 21.25 162.975 21.334 163.263 21.454C163.563 21.562 163.797 21.688 163.965 21.832C164.385 22.168 164.595 22.606 164.595 23.146C164.595 23.686 164.415 24.118 164.055 24.442C163.707 24.754 163.323 24.952 162.903 25.036C162.495 25.132 162.051 25.18 161.571 25.18C160.623 25.18 159.807 25.024 159.123 24.712C158.907 24.616 158.799 24.478 158.799 24.298ZM59.2335 33.902H58.1715C58.0515 33.902 57.9495 33.866 57.8655 33.794C57.7935 33.71 57.7575 33.608 57.7575 33.488C57.7575 33.368 57.7935 33.266 57.8655 33.182C57.9495 33.098 58.0515 33.056 58.1715 33.056H66.1275C66.4395 33.056 66.5955 33.2 66.5955 33.488V34.964C66.5955 35.084 66.5475 35.186 66.4515 35.27C66.3555 35.342 66.2415 35.378 66.1095 35.378C65.9775 35.378 65.8635 35.342 65.7675 35.27C65.6715 35.186 65.6235 35.084 65.6235 34.964V33.902H60.2055V38.078H64.7595V37.412C64.7595 37.292 64.8015 37.196 64.8855 37.124C64.9815 37.04 65.0955 36.998 65.2275 36.998C65.3595 36.998 65.4675 37.04 65.5515 37.124C65.6475 37.196 65.6955 37.292 65.6955 37.412V39.608C65.6955 39.728 65.6475 39.83 65.5515 39.914C65.4675 39.986 65.3595 40.022 65.2275 40.022C65.0955 40.022 64.9815 39.986 64.8855 39.914C64.8015 39.83 64.7595 39.728 64.7595 39.608V38.924H60.2055V43.766C60.2055 43.886 60.1575 43.982 60.0615 44.054C59.9655 44.138 59.8515 44.18 59.7195 44.18C59.5875 44.18 59.4735 44.138 59.3775 44.054C59.2815 43.982 59.2335 43.886 59.2335 43.766V33.902ZM74.877 43.154H75.723C75.843 43.154 75.939 43.196 76.011 43.28C76.095 43.352 76.137 43.448 76.137 43.568C76.137 43.688 76.095 43.79 76.011 43.874C75.939 43.958 75.843 44 75.723 44H74.751C74.007 44 73.635 43.592 73.635 42.776C72.915 43.712 72.009 44.18 70.917 44.18C70.269 44.18 69.735 44.018 69.315 43.694C68.907 43.358 68.703 42.872 68.703 42.236V38.456C68.703 38.228 68.541 38.114 68.217 38.114H67.515C67.395 38.114 67.293 38.072 67.209 37.988C67.137 37.904 67.101 37.802 67.101 37.682C67.101 37.562 67.137 37.466 67.209 37.394C67.293 37.31 67.395 37.268 67.515 37.268H68.217C69.189 37.268 69.675 37.658 69.675 38.438V42.236C69.675 42.596 69.783 42.872 69.999 43.064C70.227 43.256 70.539 43.352 70.935 43.352C72.039 43.352 72.915 42.776 73.563 41.624V37.502C73.563 37.382 73.611 37.286 73.707 37.214C73.803 37.13 73.917 37.088 74.049 37.088C74.181 37.088 74.295 37.13 74.391 37.214C74.487 37.286 74.535 37.382 74.535 37.502V42.812C74.535 43.04 74.649 43.154 74.877 43.154ZM78.9952 43.154H79.6972C79.8172 43.154 79.9132 43.196 79.9852 43.28C80.0692 43.364 80.1112 43.466 80.1112 43.586C80.1112 43.706 80.0692 43.808 79.9852 43.892C79.9132 43.964 79.8172 44 79.6972 44H78.9952C78.0232 44 77.5372 43.61 77.5372 42.83V31.346H76.3492C76.2292 31.346 76.1332 31.31 76.0612 31.238C75.9772 31.154 75.9352 31.052 75.9352 30.932C75.9352 30.812 75.9772 30.71 76.0612 30.626C76.1332 30.542 76.2292 30.5 76.3492 30.5H78.0232C78.1552 30.5 78.2692 30.542 78.3652 30.626C78.4612 30.71 78.5092 30.812 78.5092 30.932V42.812C78.5092 43.04 78.6712 43.154 78.9952 43.154ZM83.0558 43.154H83.7578C83.8778 43.154 83.9738 43.196 84.0458 43.28C84.1298 43.364 84.1718 43.466 84.1718 43.586C84.1718 43.706 84.1298 43.808 84.0458 43.892C83.9738 43.964 83.8778 44 83.7578 44H83.0558C82.0838 44 81.5978 43.61 81.5978 42.83V31.346H80.4098C80.2898 31.346 80.1938 31.31 80.1218 31.238C80.0378 31.154 79.9958 31.052 79.9958 30.932C79.9958 30.812 80.0378 30.71 80.1218 30.626C80.1938 30.542 80.2898 30.5 80.4098 30.5H82.0838C82.2158 30.5 82.3298 30.542 82.4258 30.626C82.5218 30.71 82.5698 30.812 82.5698 30.932V42.812C82.5698 43.04 82.7318 43.154 83.0558 43.154ZM89.8569 40.472H85.6629C85.5429 40.472 85.4409 40.436 85.3569 40.364C85.2849 40.28 85.2489 40.178 85.2489 40.058C85.2489 39.938 85.2849 39.836 85.3569 39.752C85.4409 39.668 85.5429 39.626 85.6629 39.626H89.8569C89.9769 39.626 90.0729 39.668 90.1449 39.752C90.2289 39.836 90.2709 39.938 90.2709 40.058C90.2709 40.178 90.2289 40.28 90.1449 40.364C90.0729 40.436 89.9769 40.472 89.8569 40.472ZM93.1944 41.516V42.758C93.9984 43.142 95.0184 43.334 96.2544 43.334C97.4904 43.334 98.4204 43.142 99.0444 42.758C99.6684 42.362 99.9804 41.81 99.9804 41.102C99.9804 40.382 99.6864 39.848 99.0984 39.5C98.5104 39.152 97.5744 38.858 96.2904 38.618C95.0064 38.366 94.0404 38.036 93.3924 37.628C92.7564 37.22 92.4384 36.578 92.4384 35.702C92.4384 33.818 93.8364 32.876 96.6324 32.876C98.1204 32.876 99.3504 33.146 100.322 33.686C100.502 33.794 100.592 33.92 100.592 34.064V35.54C100.592 35.66 100.544 35.762 100.448 35.846C100.352 35.918 100.238 35.954 100.106 35.954C99.9744 35.954 99.8604 35.918 99.7644 35.846C99.6684 35.762 99.6204 35.66 99.6204 35.54V34.298C98.7924 33.914 97.8084 33.722 96.6684 33.722C95.5404 33.722 94.7124 33.884 94.1844 34.208C93.6684 34.532 93.4104 35.03 93.4104 35.702C93.4104 36.338 93.7464 36.812 94.4184 37.124C94.8744 37.352 95.4864 37.55 96.2544 37.718C97.0344 37.874 97.5864 37.994 97.9104 38.078C98.2344 38.162 98.6124 38.294 99.0444 38.474C99.4764 38.642 99.8124 38.834 100.052 39.05C100.292 39.266 100.502 39.554 100.682 39.914C100.862 40.262 100.952 40.664 100.952 41.12C100.952 42.056 100.556 42.8 99.7644 43.352C98.9844 43.904 97.8624 44.18 96.3984 44.18C95.7264 44.18 95.0004 44.108 94.2204 43.964C93.4404 43.808 92.8524 43.604 92.4564 43.352C92.3004 43.256 92.2224 43.136 92.2224 42.992V41.516C92.2224 41.396 92.2704 41.3 92.3664 41.228C92.4624 41.144 92.5764 41.102 92.7084 41.102C92.8404 41.102 92.9544 41.144 93.0504 41.228C93.1464 41.3 93.1944 41.396 93.1944 41.516ZM107.529 42.848C107.625 42.788 107.733 42.77 107.853 42.794C107.985 42.818 108.075 42.872 108.123 42.956C108.171 43.028 108.195 43.094 108.195 43.154C108.195 43.334 108.129 43.466 107.997 43.55C107.277 43.97 106.503 44.18 105.675 44.18C104.847 44.18 104.253 44.012 103.893 43.676C103.533 43.328 103.353 42.758 103.353 41.966V38.114H102.345C102.225 38.114 102.123 38.078 102.039 38.006C101.967 37.922 101.931 37.82 101.931 37.7C101.931 37.58 101.967 37.478 102.039 37.394C102.123 37.31 102.225 37.268 102.345 37.268H103.353V34.694C103.353 34.574 103.401 34.478 103.497 34.406C103.593 34.322 103.707 34.28 103.839 34.28C103.971 34.28 104.085 34.322 104.181 34.406C104.277 34.478 104.325 34.574 104.325 34.694V37.268H107.349C107.469 37.268 107.565 37.31 107.637 37.394C107.721 37.478 107.763 37.58 107.763 37.7C107.763 37.82 107.721 37.922 107.637 38.006C107.565 38.078 107.469 38.114 107.349 38.114H104.325V41.966C104.325 42.47 104.427 42.83 104.631 43.046C104.847 43.25 105.237 43.352 105.801 43.352C106.377 43.352 106.953 43.184 107.529 42.848ZM114.044 41.21C113.252 40.994 112.574 40.886 112.01 40.886C111.458 40.886 111.002 40.994 110.642 41.21C110.294 41.426 110.12 41.732 110.12 42.128C110.12 42.512 110.234 42.812 110.462 43.028C110.69 43.244 111.002 43.352 111.398 43.352C112.502 43.352 113.384 42.752 114.044 41.552V41.21ZM115.484 43.154H116.186C116.306 43.154 116.402 43.196 116.474 43.28C116.558 43.364 116.6 43.466 116.6 43.586C116.6 43.706 116.558 43.808 116.474 43.892C116.402 43.964 116.306 44 116.186 44H115.394C114.962 44 114.626 43.904 114.386 43.712C114.158 43.52 114.044 43.25 114.044 42.902C114.044 42.842 114.05 42.776 114.062 42.704C113.426 43.688 112.502 44.18 111.29 44.18C110.618 44.18 110.09 44 109.706 43.64C109.334 43.28 109.148 42.782 109.148 42.146C109.148 41.498 109.4 40.994 109.904 40.634C110.42 40.262 111.056 40.076 111.812 40.076C112.58 40.076 113.324 40.202 114.044 40.454V39.212C114.044 38.636 113.834 38.264 113.414 38.096C113.09 37.976 112.64 37.916 112.064 37.916C111.5 37.916 110.978 38.012 110.498 38.204V39.338C110.498 39.458 110.45 39.56 110.354 39.644C110.258 39.716 110.144 39.752 110.012 39.752C109.88 39.752 109.766 39.716 109.67 39.644C109.574 39.56 109.526 39.458 109.526 39.338V37.97C109.526 37.814 109.604 37.694 109.76 37.61C110.348 37.262 111.128 37.088 112.1 37.088C113.072 37.088 113.798 37.25 114.278 37.574C114.758 37.886 114.998 38.432 114.998 39.212V42.812C114.998 43.04 115.16 43.154 115.484 43.154ZM122.723 42.272C122.819 42.128 122.915 42.056 123.011 42.056C123.119 42.056 123.227 42.08 123.335 42.128C123.503 42.2 123.587 42.302 123.587 42.434C123.587 42.554 123.569 42.644 123.533 42.704C122.921 43.688 121.949 44.18 120.617 44.18C119.597 44.18 118.781 43.838 118.169 43.154C117.557 42.458 117.251 41.606 117.251 40.598C117.251 39.59 117.569 38.756 118.205 38.096C118.853 37.424 119.651 37.088 120.599 37.088C121.559 37.088 122.393 37.31 123.101 37.754C123.245 37.85 123.317 37.964 123.317 38.096V39.608C123.317 39.728 123.269 39.83 123.173 39.914C123.077 39.986 122.963 40.022 122.831 40.022C122.699 40.022 122.585 39.986 122.489 39.914C122.393 39.83 122.345 39.728 122.345 39.608V38.33C121.865 38.054 121.289 37.916 120.617 37.916C119.945 37.916 119.375 38.168 118.907 38.672C118.439 39.176 118.205 39.83 118.205 40.634C118.205 41.426 118.427 42.08 118.871 42.596C119.327 43.1 119.909 43.352 120.617 43.352C121.553 43.352 122.255 42.992 122.723 42.272ZM126.407 40.184C126.935 40.268 127.475 40.31 128.027 40.31C128.579 40.31 129.089 40.202 129.557 39.986C130.037 39.758 130.277 39.398 130.277 38.906C130.277 38.222 129.863 37.88 129.035 37.88C127.919 37.88 127.043 38.468 126.407 39.644V40.184ZM131.501 43.352C131.621 43.352 131.717 43.394 131.789 43.478C131.873 43.55 131.915 43.646 131.915 43.766C131.915 43.886 131.873 43.982 131.789 44.054C131.717 44.138 131.621 44.18 131.501 44.18C130.433 44.18 129.455 43.892 128.567 43.316C127.691 42.728 126.971 41.996 126.407 41.12V43.766C126.407 43.886 126.359 43.982 126.263 44.054C126.167 44.138 126.053 44.18 125.921 44.18C125.789 44.18 125.675 44.138 125.579 44.054C125.483 43.982 125.435 43.886 125.435 43.766V31.346H124.247C124.127 31.346 124.031 31.31 123.959 31.238C123.875 31.154 123.833 31.052 123.833 30.932C123.833 30.812 123.875 30.71 123.959 30.626C124.031 30.542 124.127 30.5 124.247 30.5H125.921C126.041 30.5 126.149 30.542 126.245 30.626C126.353 30.71 126.407 30.812 126.407 30.932V38.474C127.103 37.526 127.979 37.052 129.035 37.052C129.719 37.052 130.259 37.214 130.655 37.538C131.051 37.85 131.249 38.288 131.249 38.852C131.249 39.416 131.069 39.872 130.709 40.22C130.121 40.784 129.293 41.066 128.225 41.066C127.829 41.066 127.475 41.024 127.163 40.94C127.679 41.624 128.327 42.2 129.107 42.668C129.899 43.124 130.697 43.352 131.501 43.352ZM138.973 33.902V43.154H141.727C143.119 43.154 144.205 42.752 144.985 41.948C145.777 41.132 146.173 40.004 146.173 38.564C146.173 37.112 145.771 35.972 144.967 35.144C144.163 34.316 143.083 33.902 141.727 33.902H138.973ZM138.001 33.902H136.921C136.801 33.902 136.699 33.866 136.615 33.794C136.543 33.71 136.507 33.608 136.507 33.488C136.507 33.368 136.543 33.266 136.615 33.182C136.699 33.098 136.801 33.056 136.921 33.056H141.727C143.359 33.056 144.667 33.554 145.651 34.55C146.647 35.534 147.145 36.866 147.145 38.546C147.145 40.226 146.659 41.558 145.687 42.542C144.715 43.514 143.395 44 141.727 44H138.469C138.157 44 138.001 43.862 138.001 43.586V33.902ZM154.223 40.04C154.187 39.392 153.995 38.876 153.647 38.492C153.311 38.108 152.819 37.916 152.171 37.916C151.535 37.916 151.001 38.114 150.569 38.51C150.137 38.894 149.867 39.404 149.759 40.04H154.223ZM154.259 42.272C154.343 42.128 154.439 42.056 154.547 42.056C154.655 42.056 154.763 42.086 154.871 42.146C154.979 42.194 155.051 42.278 155.087 42.398C155.135 42.506 155.129 42.608 155.069 42.704C154.457 43.688 153.485 44.18 152.153 44.18C151.097 44.18 150.263 43.844 149.651 43.172C149.051 42.488 148.751 41.63 148.751 40.598C148.751 39.566 149.063 38.726 149.687 38.078C150.311 37.418 151.133 37.088 152.153 37.088C153.173 37.088 153.929 37.394 154.421 38.006C154.925 38.618 155.177 39.434 155.177 40.454C155.177 40.73 155.021 40.868 154.709 40.868L149.723 40.886C149.771 41.63 150.011 42.23 150.443 42.686C150.887 43.13 151.457 43.352 152.153 43.352C153.089 43.352 153.791 42.992 154.259 42.272ZM162.155 37.34C162.239 37.16 162.335 37.07 162.443 37.07C162.731 37.07 162.929 37.178 163.037 37.394C163.061 37.454 163.073 37.514 163.073 37.574C163.073 37.622 163.061 37.67 163.037 37.718L160.085 43.892C159.989 44.084 159.833 44.18 159.617 44.18C159.413 44.18 159.263 44.084 159.167 43.892L156.197 37.718C156.173 37.67 156.161 37.616 156.161 37.556C156.161 37.376 156.269 37.238 156.485 37.142C156.581 37.094 156.683 37.07 156.791 37.07C156.911 37.07 157.013 37.16 157.097 37.34L159.635 42.812L162.155 37.34ZM169.692 40.04C169.656 39.392 169.464 38.876 169.116 38.492C168.78 38.108 168.288 37.916 167.64 37.916C167.004 37.916 166.47 38.114 166.038 38.51C165.606 38.894 165.336 39.404 165.228 40.04H169.692ZM169.728 42.272C169.812 42.128 169.908 42.056 170.016 42.056C170.124 42.056 170.232 42.086 170.34 42.146C170.448 42.194 170.52 42.278 170.556 42.398C170.604 42.506 170.598 42.608 170.538 42.704C169.926 43.688 168.954 44.18 167.622 44.18C166.566 44.18 165.732 43.844 165.12 43.172C164.52 42.488 164.22 41.63 164.22 40.598C164.22 39.566 164.532 38.726 165.156 38.078C165.78 37.418 166.602 37.088 167.622 37.088C168.642 37.088 169.398 37.394 169.89 38.006C170.394 38.618 170.646 39.434 170.646 40.454C170.646 40.73 170.49 40.868 170.178 40.868L165.192 40.886C165.24 41.63 165.48 42.23 165.912 42.686C166.356 43.13 166.926 43.352 167.622 43.352C168.558 43.352 169.26 42.992 169.728 42.272ZM174.146 43.154H174.848C174.968 43.154 175.064 43.196 175.136 43.28C175.22 43.364 175.262 43.466 175.262 43.586C175.262 43.706 175.22 43.808 175.136 43.892C175.064 43.964 174.968 44 174.848 44H174.146C173.174 44 172.688 43.61 172.688 42.83V31.346H171.5C171.38 31.346 171.284 31.31 171.212 31.238C171.128 31.154 171.086 31.052 171.086 30.932C171.086 30.812 171.128 30.71 171.212 30.626C171.284 30.542 171.38 30.5 171.5 30.5H173.174C173.306 30.5 173.42 30.542 173.516 30.626C173.612 30.71 173.66 30.812 173.66 30.932V42.812C173.66 43.04 173.822 43.154 174.146 43.154ZM179.646 43.352C180.378 43.352 180.972 43.1 181.428 42.596C181.896 42.092 182.13 41.444 182.13 40.652C182.13 39.848 181.896 39.194 181.428 38.69C180.972 38.174 180.378 37.916 179.646 37.916C178.914 37.916 178.314 38.174 177.846 38.69C177.39 39.194 177.162 39.848 177.162 40.652C177.162 41.444 177.39 42.092 177.846 42.596C178.314 43.1 178.914 43.352 179.646 43.352ZM177.144 43.19C176.508 42.518 176.19 41.666 176.19 40.634C176.19 39.602 176.514 38.756 177.162 38.096C177.81 37.424 178.638 37.088 179.646 37.088C180.654 37.088 181.476 37.424 182.112 38.096C182.76 38.756 183.084 39.608 183.084 40.652C183.084 41.684 182.76 42.53 182.112 43.19C181.476 43.85 180.648 44.18 179.628 44.18C178.62 44.18 177.792 43.85 177.144 43.19ZM186.447 38.546C187.071 37.574 187.899 37.088 188.931 37.088C189.975 37.088 190.767 37.424 191.307 38.096C191.859 38.756 192.135 39.596 192.135 40.616C192.135 41.636 191.853 42.488 191.289 43.172C190.737 43.844 189.963 44.18 188.967 44.18C187.983 44.18 187.167 43.838 186.519 43.154V47.708C186.519 47.828 186.471 47.924 186.375 47.996C186.279 48.08 186.165 48.122 186.033 48.122C185.901 48.122 185.787 48.08 185.691 47.996C185.595 47.924 185.547 47.828 185.547 47.708V38.456C185.547 38.228 185.433 38.114 185.205 38.114H184.359C184.239 38.114 184.137 38.078 184.053 38.006C183.981 37.922 183.945 37.82 183.945 37.7C183.945 37.58 183.981 37.478 184.053 37.394C184.137 37.31 184.239 37.268 184.359 37.268H185.331C186.099 37.268 186.471 37.694 186.447 38.546ZM186.519 42.272C187.287 42.992 188.055 43.352 188.823 43.352C189.591 43.352 190.173 43.1 190.569 42.596C190.977 42.092 191.181 41.426 191.181 40.598C191.181 39.77 190.983 39.116 190.587 38.636C190.191 38.156 189.645 37.916 188.949 37.916C187.929 37.916 187.119 38.486 186.519 39.626V42.272ZM199.135 40.04C199.099 39.392 198.907 38.876 198.559 38.492C198.223 38.108 197.731 37.916 197.083 37.916C196.447 37.916 195.913 38.114 195.481 38.51C195.049 38.894 194.779 39.404 194.671 40.04H199.135ZM199.171 42.272C199.255 42.128 199.351 42.056 199.459 42.056C199.567 42.056 199.675 42.086 199.783 42.146C199.891 42.194 199.963 42.278 199.999 42.398C200.047 42.506 200.041 42.608 199.981 42.704C199.369 43.688 198.397 44.18 197.065 44.18C196.009 44.18 195.175 43.844 194.563 43.172C193.963 42.488 193.663 41.63 193.663 40.598C193.663 39.566 193.975 38.726 194.599 38.078C195.223 37.418 196.045 37.088 197.065 37.088C198.085 37.088 198.841 37.394 199.333 38.006C199.837 38.618 200.089 39.434 200.089 40.454C200.089 40.73 199.933 40.868 199.621 40.868L194.635 40.886C194.683 41.63 194.923 42.23 195.355 42.686C195.799 43.13 196.369 43.352 197.065 43.352C198.001 43.352 198.703 42.992 199.171 42.272ZM201.357 37.268H202.275C203.031 37.268 203.421 37.676 203.445 38.492C204.093 37.556 204.861 37.088 205.749 37.088C206.253 37.088 206.679 37.184 207.027 37.376C207.195 37.472 207.279 37.598 207.279 37.754V39.266C207.279 39.386 207.231 39.488 207.135 39.572C207.039 39.644 206.925 39.68 206.793 39.68C206.661 39.68 206.547 39.644 206.451 39.572C206.355 39.488 206.307 39.386 206.307 39.266V38.006C206.151 37.946 205.917 37.916 205.605 37.916C205.293 37.916 204.939 38.066 204.543 38.366C204.147 38.654 203.805 39.086 203.517 39.662V43.766C203.517 43.886 203.469 43.982 203.373 44.054C203.277 44.138 203.163 44.18 203.031 44.18C202.899 44.18 202.785 44.138 202.689 44.054C202.593 43.982 202.545 43.886 202.545 43.766V38.456C202.545 38.228 202.425 38.114 202.185 38.114H201.357C201.237 38.114 201.135 38.078 201.051 38.006C200.979 37.922 200.943 37.82 200.943 37.7C200.943 37.58 200.979 37.478 201.051 37.394C201.135 37.31 201.237 37.268 201.357 37.268Z" fill="black"/>
</g>
<defs>
<filter id="filter0_i" x="57.7575" y="11.5" width="149.521" height="40.622" filterUnits="userSpaceOnUse" color-interpolation-filters="sRGB">
<feFlood flood-opacity="0" result="BackgroundImageFix"/>
<feBlend mode="normal" in="SourceGraphic" in2="BackgroundImageFix" result="shape"/>
<feColorMatrix in="SourceAlpha" type="matrix" values="0 0 0 0 0 0 0 0 0 0 0 0 0 0 0 0 0 0 127 0" result="hardAlpha"/>
<feOffset dy="4"/>
<feGaussianBlur stdDeviation="2"/>
<feComposite in2="hardAlpha" operator="arithmetic" k2="-1" k3="1"/>
<feColorMatrix type="matrix" values="0 0 0 0 0 0 0 0 0 0 0 0 0 0 0 0 0 0 0.25 0"/>
<feBlend mode="normal" in2="shape" result="effect1_innerShadow"/>
</filter>
<clipPath id="clip0">
<rect width="50" height="50" fill="white"/>
</clipPath>
</defs>
</svg>
